<svg width="1320" height="1934" xmlns="http://www.w3.org/2000/svg" xmlns:xlink="http://www.w3.org/1999/xlink" xml:space="preserve" overflow="hidden"><g transform="translate(-1242 -137)"><g><path d="M0 87 0 0 155 87Z" fill="#DFD0A0" fill-rule="evenodd" fill-opacity="0.498039" transform="matrix(-6.12323e-17 -1 -1 6.12323e-17 2542 308)"/><path d="M1358 305 1271 305 1358 150Z" fill="#DFD0A0" fill-rule="evenodd" fill-opacity="0.498039"/><path d="M1349 180.088C1349 166.785 1359.78 156 1373.09 156L2430.89 156C2444.19 156 2454.98 166.785 2454.98 180.088L2454.98 1882.91C2454.98 1896.22 2444.19 1907 2430.89 1907L1373.09 1907C1359.78 1907 1349 1896.22 1349 1882.91Z" stroke="#E8D088" stroke-width="27.5" stroke-linecap="butt" stroke-linejoin="miter" stroke-miterlimit="8" stroke-opacity="1" fill="#DFD0A0" fill-rule="evenodd" fill-opacity="0.501961"/><path d="M0 0 103.085 167.856" stroke="#E8D088" stroke-width="27.5" stroke-linecap="butt" stroke-linejoin="miter" stroke-miterlimit="8" stroke-opacity="1" fill="none" fill-rule="evenodd" transform="matrix(1 0 0 -1 1260 323.857)"/><path d="M2529.99 305.286 2443 156" stroke="#E8D088" stroke-width="27.5" stroke-linecap="butt" stroke-linejoin="miter" stroke-miterlimit="8" stroke-opacity="1" fill="none" fill-rule="evenodd"/><path d="M0 0 86.9884 162.118" stroke="#E8D088" stroke-width="27.5" stroke-linecap="butt" stroke-linejoin="miter" stroke-miterlimit="8" stroke-opacity="1" fill="none" fill-rule="evenodd" transform="matrix(1 0 0 -1 1271 2056.12)"/><path d="M2533.99 2043.29 2447 1894" stroke="#E8D088" stroke-width="27.5" stroke-linecap="butt" stroke-linejoin="miter" stroke-miterlimit="8" stroke-opacity="1" fill="none" fill-rule="evenodd"/><path d="M1260 332.988C1260 317.531 1272.53 305 1287.99 305L2517.04 305C2532.5 305 2545.03 317.531 2545.03 332.988L2545.03 2028.01C2545.03 2043.47 2532.5 2056 2517.04 2056L1287.99 2056C1272.53 2056 1260 2043.47 1260 2028.01Z" stroke="#E8D088" stroke-width="27.5" stroke-linecap="butt" stroke-linejoin="miter" stroke-miterlimit="8" stroke-opacity="1" fill="#F8F5D9" fill-rule="evenodd" fill-opacity="0.501961"/></g></g></svg>
