<svg width="788" height="788" xmlns="http://www.w3.org/2000/svg" xmlns:xlink="http://www.w3.org/1999/xlink" xml:space="preserve" overflow="hidden"><g transform="translate(-2337 -614)"><g><path d="M2397.5 785.169C2397.5 724.048 2447.05 674.5 2508.17 674.5L2951.83 674.5C3012.95 674.5 3062.5 724.048 3062.5 785.169L3062.5 1227.83C3062.5 1288.95 3012.95 1338.5 2951.83 1338.5L2508.17 1338.5C2447.05 1338.5 2397.5 1288.95 2397.5 1227.83Z" stroke="#9C7135" stroke-width="119.167" stroke-linecap="butt" stroke-linejoin="miter" stroke-miterlimit="8" stroke-opacity="1" fill="none" fill-rule="evenodd"/><path d="M2397 784.669C2397 723.548 2446.55 674 2507.67 674L2951.33 674C3012.45 674 3062 723.548 3062 784.669L3062 1227.33C3062 1288.45 3012.45 1338 2951.33 1338L2507.67 1338C2446.55 1338 2397 1288.45 2397 1227.33Z" stroke="#F2D28D" stroke-width="64.1667" stroke-linecap="butt" stroke-linejoin="miter" stroke-miterlimit="8" stroke-opacity="1" fill="none" fill-rule="evenodd"/></g></g></svg>