<svg width="1686" height="1751" xmlns="http://www.w3.org/2000/svg" xmlns:xlink="http://www.w3.org/1999/xlink" xml:space="preserve" overflow="hidden"><g transform="translate(-206 -407)"><g><path d="M516.342 679.297C869.319 384.843 1394.17 432.285 1688.62 785.262 1983.07 1138.24 1935.63 1663.09 1582.65 1957.54 1229.68 2251.99 704.83 2204.55 410.376 1851.57 115.923 1498.6 163.365 973.751 516.342 679.297ZM759.845 971.196C568.079 1131.17 542.304 1416.31 702.276 1608.07 862.247 1799.84 1147.39 1825.61 1339.15 1665.64 1530.92 1505.67 1556.69 1220.53 1396.72 1028.76 1236.75 836.999 951.61 811.225 759.845 971.196Z" stroke="#725326" stroke-width="13.75" stroke-linecap="butt" stroke-linejoin="miter" stroke-miterlimit="8" stroke-opacity="1" fill="#9C7135" fill-rule="evenodd" fill-opacity="1"/><path d="M573.715 422.704 1080.57 567.477 910.67 1066.47Z" stroke="#725326" stroke-width="13.75" stroke-linecap="butt" stroke-linejoin="miter" stroke-miterlimit="8" stroke-opacity="1" fill="#9C7135" fill-rule="evenodd" fill-opacity="1"/><path d="M666.511 529.909 932.306 571.775 876.769 924.366 610.974 882.5Z" fill="#9C7135" fill-rule="nonzero" fill-opacity="1"/><path d="M1264 757.5C1264 689.293 1319.29 634 1387.5 634 1455.71 634 1511 689.293 1511 757.5 1511 825.707 1455.71 881 1387.5 881 1319.29 881 1264 825.707 1264 757.5Z" stroke="#B63320" stroke-width="13.75" stroke-linecap="butt" stroke-linejoin="miter" stroke-miterlimit="8" stroke-opacity="1" fill="#D73125" fill-rule="evenodd" fill-opacity="1"/><path d="M51.8675 0C80.5131-2.07175e-14 103.735 36.428 103.735 81.3643" stroke="#89C65B" stroke-width="27.5" stroke-linecap="butt" stroke-linejoin="miter" stroke-miterlimit="8" stroke-opacity="1" fill="none" fill-rule="evenodd" transform="matrix(-0.93241 0.361402 0.361402 0.93241 1456.55 570.859)"/><path d="M1329.5 743C1329.5 734.992 1335.99 728.5 1344 728.5 1352.01 728.5 1358.5 734.992 1358.5 743 1358.5 751.008 1352.01 757.5 1344 757.5 1335.99 757.5 1329.5 751.008 1329.5 743Z" stroke="#961D0A" stroke-width="4.58333" stroke-linecap="butt" stroke-linejoin="miter" stroke-miterlimit="8" stroke-opacity="1" fill="#FFFFFF" fill-rule="evenodd" fill-opacity="1"/><path d="M1419.5 743C1419.5 734.992 1425.99 728.5 1434 728.5 1442.01 728.5 1448.5 734.992 1448.5 743 1448.5 751.008 1442.01 757.5 1434 757.5 1425.99 757.5 1419.5 751.008 1419.5 743Z" stroke="#961D0A" stroke-width="4.58333" stroke-linecap="butt" stroke-linejoin="miter" stroke-miterlimit="8" stroke-opacity="1" fill="#FFFFFF" fill-rule="evenodd" fill-opacity="1"/><rect x="1370.5" y="777.5" width="44" height="14.0001" stroke="#961D0A" stroke-width="4.58333" stroke-linecap="butt" stroke-linejoin="miter" stroke-miterlimit="8" stroke-opacity="1" fill="#FFFFFF" fill-opacity="1"/><path d="M1477 986.5C1477 917.188 1533.19 861 1602.5 861 1671.81 861 1728 917.188 1728 986.5 1728 1055.81 1671.81 1112 1602.5 1112 1533.19 1112 1477 1055.81 1477 986.5Z" stroke="#DD301E" stroke-width="13.75" stroke-linecap="butt" stroke-linejoin="miter" stroke-miterlimit="8" stroke-opacity="1" fill="#FF765B" fill-rule="evenodd" fill-opacity="1"/><path d="M1537.52 853.612C1536.62 845.001 1547.2 838.402 1561.14 838.872 1566.79 839.063 1572.4 840.419 1577.07 842.722 1582.92 837.411 1595.24 836.571 1604.6 840.847 1606.23 841.595 1607.71 842.473 1608.99 843.455 1613.58 839.022 1623.61 838.173 1631.38 841.56 1633.53 842.497 1635.36 843.703 1636.73 845.085 1643.76 841.206 1655.28 841.97 1662.46 846.792 1665.48 848.819 1667.38 851.35 1667.84 853.951 1678.25 856.951 1683.73 864.353 1680.09 870.482 1679.78 870.997 1679.41 871.494 1678.99 871.969 1686.72 879.702 1683.51 889.117 1671.81 892.998 1668.18 894.206 1663.98 894.773 1659.62 894.644 1658.68 901.883 1648.25 906.574 1636.32 905.122 1632.33 904.637 1628.51 903.492 1625.28 901.815 1620.29 909.471 1605.67 912.42 1592.62 908.403 1587.15 906.719 1582.58 903.974 1579.68 900.637 1565.44 904.049 1548.03 899.287 1540.8 890.002 1540.71 889.885 1540.62 889.767 1540.53 889.65 1531.52 889.242 1523.88 884.422 1523.46 878.883 1523.24 875.931 1525.14 873.224 1528.67 871.484 1521.26 867.812 1519.37 861.432 1524.45 857.234 1527.38 854.812 1532.18 853.544 1537.36 853.82Z" stroke="#84A821" stroke-width="13.75" stroke-linecap="butt" stroke-linejoin="miter" stroke-miterlimit="8" stroke-opacity="1" fill="#BCEB48" fill-rule="evenodd" fill-opacity="1"/><path d="M1538.19 873.658C1534.86 873.43 1531.62 872.58 1528.88 871.224M1544.84 889.187C1543.47 889.353 1542.05 889.404 1540.62 889.34M1579.7 900.345C1578.81 899.318 1578.09 898.247 1577.55 897.151M1626.69 898.492C1626.42 899.555 1625.96 900.584 1625.32 901.561M1648.8 881.12C1656.03 884.21 1660.21 889.394 1659.56 894.445M1678.93 871.784C1677.52 873.365 1675.49 874.677 1673 875.617M1667.89 853.703C1668.01 854.423 1668.03 855.14 1667.93 855.845M1633.63 847.211C1634.45 846.32 1635.48 845.524 1636.71 844.845M1607.56 845.466C1607.94 844.696 1608.48 843.97 1609.17 843.304M1577.05 842.703C1578.74 843.537 1580.28 844.482 1581.64 845.52M1538.09 856.078C1537.8 855.259 1537.61 854.435 1537.52 853.612" stroke="#84A821" stroke-width="13.75" stroke-linecap="butt" stroke-linejoin="miter" stroke-miterlimit="8" stroke-opacity="1" fill="none" fill-rule="evenodd"/><rect x="1588" y="816" width="27.9999" height="45.0001" stroke="#84A821" stroke-width="13.75" stroke-linecap="butt" stroke-linejoin="miter" stroke-miterlimit="8" stroke-opacity="1" fill="#BCEB48" fill-opacity="1"/><path d="M1555.5 972C1555.5 963.992 1559.08 957.5 1563.5 957.5 1567.92 957.5 1571.5 963.992 1571.5 972 1571.5 980.008 1567.92 986.5 1563.5 986.5 1559.08 986.5 1555.5 980.008 1555.5 972Z" stroke="#961D0A" stroke-width="4.58333" stroke-linecap="butt" stroke-linejoin="miter" stroke-miterlimit="8" stroke-opacity="1" fill="#8D1608" fill-rule="evenodd" fill-opacity="1"/><path d="M1647.5 972C1647.5 963.992 1651.08 957.5 1655.5 957.5 1659.92 957.5 1663.5 963.992 1663.5 972 1663.5 980.008 1659.92 986.5 1655.5 986.5 1651.08 986.5 1647.5 980.008 1647.5 972Z" stroke="#961D0A" stroke-width="4.58333" stroke-linecap="butt" stroke-linejoin="miter" stroke-miterlimit="8" stroke-opacity="1" fill="#8D1608" fill-rule="evenodd" fill-opacity="1"/><rect x="1605.5" y="1002.5" width="15.9998" height="34" stroke="#8D2818" stroke-width="4.58333" stroke-linecap="butt" stroke-linejoin="miter" stroke-miterlimit="8" stroke-opacity="1" fill="#FFFFFF" fill-opacity="1"/><path d="M1542.5 1047C1542.5 1043.41 1546.31 1040.5 1551 1040.5 1555.69 1040.5 1559.5 1043.41 1559.5 1047 1559.5 1050.59 1555.69 1053.5 1551 1053.5 1546.31 1053.5 1542.5 1050.59 1542.5 1047Z" stroke="#8D2818" stroke-width="4.58333" stroke-linecap="butt" stroke-linejoin="miter" stroke-miterlimit="8" stroke-opacity="1" fill="#FFFFFF" fill-rule="evenodd" fill-opacity="1"/><path d="M1635.5 1081.5C1635.5 1077.63 1638.19 1074.5 1641.5 1074.5 1644.81 1074.5 1647.5 1077.63 1647.5 1081.5 1647.5 1085.37 1644.81 1088.5 1641.5 1088.5 1638.19 1088.5 1635.5 1085.37 1635.5 1081.5Z" stroke="#8D2818" stroke-width="4.58333" stroke-linecap="butt" stroke-linejoin="miter" stroke-miterlimit="8" stroke-opacity="1" fill="#FFFFFF" fill-rule="evenodd" fill-opacity="1"/><path d="M1506.5 985.5C1506.5 981.634 1508.96 978.5 1512 978.5 1515.04 978.5 1517.5 981.634 1517.5 985.5 1517.5 989.366 1515.04 992.5 1512 992.5 1508.96 992.5 1506.5 989.366 1506.5 985.5Z" stroke="#8D2818" stroke-width="4.58333" stroke-linecap="butt" stroke-linejoin="miter" stroke-miterlimit="8" stroke-opacity="1" fill="#FFFFFF" fill-rule="evenodd" fill-opacity="1"/><path d="M1683.74 1009.01C1685.89 1006 1689.68 1005.02 1692.2 1006.83 1694.72 1008.63 1695.01 1012.53 1692.85 1015.54 1690.7 1018.55 1686.91 1019.53 1684.39 1017.73 1681.88 1015.92 1681.58 1012.02 1683.74 1009.01Z" stroke="#8D2818" stroke-width="4.58333" stroke-linecap="butt" stroke-linejoin="miter" stroke-miterlimit="8" stroke-opacity="1" fill="#FFFFFF" fill-rule="evenodd" fill-opacity="1"/><path d="M1666.46 922.712C1668.61 919.702 1672.4 918.723 1674.92 920.526 1677.44 922.329 1677.73 926.23 1675.57 929.24 1673.42 932.25 1669.63 933.229 1667.11 931.426 1664.59 929.623 1664.3 925.722 1666.46 922.712Z" stroke="#8D2818" stroke-width="4.58333" stroke-linecap="butt" stroke-linejoin="miter" stroke-miterlimit="8" stroke-opacity="1" fill="#FFFFFF" fill-rule="evenodd" fill-opacity="1"/><path d="M1542.89 931.456C1541.34 928.091 1542.38 924.316 1545.19 923.026 1548 921.736 1551.54 923.418 1553.08 926.784 1554.62 930.149 1553.59 933.923 1550.78 935.214 1547.96 936.504 1544.43 934.822 1542.89 931.456Z" stroke="#8D2818" stroke-width="4.58333" stroke-linecap="butt" stroke-linejoin="miter" stroke-miterlimit="8" stroke-opacity="1" fill="#FFFFFF" fill-rule="evenodd" fill-opacity="1"/><path d="M1671.43 1219.75 1664.07 1195.2 1639.58 1176.14 1652.82 1161.51 1643.72 1136.76 1669.81 1140.62 1681.43 1124.66 1705.08 1144.75 1730.62 1146.94 1737.97 1171.49 1762.47 1190.54 1749.22 1205.17 1758.32 1229.93 1732.23 1226.07 1720.61 1242.02 1696.96 1221.94Z" stroke="#84A821" stroke-width="13.75" stroke-linecap="butt" stroke-linejoin="miter" stroke-miterlimit="8" stroke-opacity="1" fill="#BCEB48" fill-rule="evenodd" fill-opacity="1"/><path d="M1703 1294C1703 1272.46 1720.46 1255 1742 1255 1763.54 1255 1781 1272.46 1781 1294 1781 1315.54 1763.54 1333 1742 1333 1720.46 1333 1703 1315.54 1703 1294Z" stroke="#8E3CFB" stroke-width="13.75" stroke-linecap="butt" stroke-linejoin="miter" stroke-miterlimit="8" stroke-opacity="1" fill="#A974FF" fill-rule="evenodd" fill-opacity="1"/><path d="M1625 1293C1625 1271.46 1642.46 1254 1664 1254 1685.54 1254 1703 1271.46 1703 1293 1703 1314.54 1685.54 1332 1664 1332 1642.46 1332 1625 1314.54 1625 1293Z" stroke="#8E3CFB" stroke-width="13.75" stroke-linecap="butt" stroke-linejoin="miter" stroke-miterlimit="8" stroke-opacity="1" fill="#A974FF" fill-rule="evenodd" fill-opacity="1"/><path d="M1619 1221C1619 1199.46 1636.46 1182 1658 1182 1679.54 1182 1697 1199.46 1697 1221 1697 1242.54 1679.54 1260 1658 1260 1636.46 1260 1619 1242.54 1619 1221Z" stroke="#7230C8" stroke-width="13.75" stroke-linecap="butt" stroke-linejoin="miter" stroke-miterlimit="8" stroke-opacity="1" fill="#A974FF" fill-rule="evenodd" fill-opacity="1"/><path d="M1697 1218.5C1697 1196.68 1714.46 1179 1736 1179 1757.54 1179 1775 1196.68 1775 1218.5 1775 1240.32 1757.54 1258 1736 1258 1714.46 1258 1697 1240.32 1697 1218.5Z" stroke="#7230C8" stroke-width="13.75" stroke-linecap="butt" stroke-linejoin="miter" stroke-miterlimit="8" stroke-opacity="1" fill="#A974FF" fill-rule="evenodd" fill-opacity="1"/><path d="M1580 1265C1580 1243.46 1597.46 1226 1619 1226 1640.54 1226 1658 1243.46 1658 1265 1658 1286.54 1640.54 1304 1619 1304 1597.46 1304 1580 1286.54 1580 1265Z" stroke="#8E3CFB" stroke-width="13.75" stroke-linecap="butt" stroke-linejoin="miter" stroke-miterlimit="8" stroke-opacity="1" fill="#A974FF" fill-rule="evenodd" fill-opacity="1"/><path d="M1659 1265C1659 1243.46 1676.46 1226 1698 1226 1719.54 1226 1737 1243.46 1737 1265 1737 1286.54 1719.54 1304 1698 1304 1676.46 1304 1659 1286.54 1659 1265Z" stroke="#8E3CFB" stroke-width="13.75" stroke-linecap="butt" stroke-linejoin="miter" stroke-miterlimit="8" stroke-opacity="1" fill="#A974FF" fill-rule="evenodd" fill-opacity="1"/><path d="M1740 1264C1740 1242.46 1757.46 1225 1779 1225 1800.54 1225 1818 1242.46 1818 1264 1818 1285.54 1800.54 1303 1779 1303 1757.46 1303 1740 1285.54 1740 1264Z" stroke="#8E3CFB" stroke-width="13.75" stroke-linecap="butt" stroke-linejoin="miter" stroke-miterlimit="8" stroke-opacity="1" fill="#A974FF" fill-rule="evenodd" fill-opacity="1"/><path d="M1585 1316C1585 1294.46 1602.46 1277 1624 1277 1645.54 1277 1663 1294.46 1663 1316 1663 1337.54 1645.54 1355 1624 1355 1602.46 1355 1585 1337.54 1585 1316Z" stroke="#A25AFF" stroke-width="13.75" stroke-linecap="butt" stroke-linejoin="miter" stroke-miterlimit="8" stroke-opacity="1" fill="#A974FF" fill-rule="evenodd" fill-opacity="1"/><path d="M1658 1316C1658 1294.46 1675.46 1277 1697 1277 1718.54 1277 1736 1294.46 1736 1316 1736 1337.54 1718.54 1355 1697 1355 1675.46 1355 1658 1337.54 1658 1316Z" stroke="#A25AFF" stroke-width="13.75" stroke-linecap="butt" stroke-linejoin="miter" stroke-miterlimit="8" stroke-opacity="1" fill="#A974FF" fill-rule="evenodd" fill-opacity="1"/><path d="M1732 1319C1732 1297.46 1749.46 1280 1771 1280 1792.54 1280 1810 1297.46 1810 1319 1810 1340.54 1792.54 1358 1771 1358 1749.46 1358 1732 1340.54 1732 1319Z" stroke="#A25AFF" stroke-width="13.75" stroke-linecap="butt" stroke-linejoin="miter" stroke-miterlimit="8" stroke-opacity="1" fill="#A974FF" fill-rule="evenodd" fill-opacity="1"/><path d="M1608 1358C1608 1336.46 1625.46 1319 1647 1319 1668.54 1319 1686 1336.46 1686 1358 1686 1379.54 1668.54 1397 1647 1397 1625.46 1397 1608 1379.54 1608 1358Z" stroke="#A25AFF" stroke-width="13.75" stroke-linecap="butt" stroke-linejoin="miter" stroke-miterlimit="8" stroke-opacity="1" fill="#A974FF" fill-rule="evenodd" fill-opacity="1"/><path d="M1707 1362C1707 1340.46 1724.46 1323 1746 1323 1767.54 1323 1785 1340.46 1785 1362 1785 1383.54 1767.54 1401 1746 1401 1724.46 1401 1707 1383.54 1707 1362Z" stroke="#A25AFF" stroke-width="13.75" stroke-linecap="butt" stroke-linejoin="miter" stroke-miterlimit="8" stroke-opacity="1" fill="#A974FF" fill-rule="evenodd" fill-opacity="1"/><path d="M1659 1387.5C1659 1365.68 1676.46 1348 1698 1348 1719.54 1348 1737 1365.68 1737 1387.5 1737 1409.32 1719.54 1427 1698 1427 1676.46 1427 1659 1409.32 1659 1387.5Z" stroke="#A25AFF" stroke-width="13.75" stroke-linecap="butt" stroke-linejoin="miter" stroke-miterlimit="8" stroke-opacity="1" fill="#A974FF" fill-rule="evenodd" fill-opacity="1"/><path d="M1642.13 1281.34C1638.82 1273.04 1641.49 1264.17 1648.11 1261.53 1654.73 1258.89 1662.78 1263.48 1666.09 1271.79 1669.4 1280.09 1666.72 1288.96 1660.1 1291.6 1653.49 1294.24 1645.44 1289.65 1642.13 1281.34Z" stroke="#5810D8" stroke-width="4.58333" stroke-linecap="butt" stroke-linejoin="miter" stroke-miterlimit="8" stroke-opacity="1" fill="#5810D8" fill-rule="evenodd" fill-opacity="1"/><path d="M1728.14 1274.29C1732.52 1265.92 1740.67 1261.55 1746.36 1264.52 1752.04 1267.49 1753.11 1276.68 1748.74 1285.05 1744.36 1293.41 1736.21 1297.79 1730.52 1294.81 1724.84 1291.84 1723.77 1282.65 1728.14 1274.29Z" stroke="#5810D8" stroke-width="4.58333" stroke-linecap="butt" stroke-linejoin="miter" stroke-miterlimit="8" stroke-opacity="1" fill="#5810D8" fill-rule="evenodd" fill-opacity="1"/><path d="M1721 1321 1699 1368 1677 1321Z" stroke="#5810D8" stroke-width="10.3125" stroke-linecap="butt" stroke-linejoin="miter" stroke-miterlimit="8" stroke-opacity="1" fill="#FFFFFF" fill-rule="evenodd" fill-opacity="1"/><path d="M1493 1633.5C1493 1565.29 1548.29 1510 1616.5 1510 1684.71 1510 1740 1565.29 1740 1633.5 1740 1701.71 1684.71 1757 1616.5 1757 1548.29 1757 1493 1701.71 1493 1633.5Z" stroke="#CB8617" stroke-width="13.75" stroke-linecap="butt" stroke-linejoin="miter" stroke-miterlimit="8" stroke-opacity="1" fill="#FEBF00" fill-rule="evenodd" fill-opacity="1"/><path d="M1559.5 1621C1559.5 1612.99 1566.22 1606.5 1574.5 1606.5 1582.78 1606.5 1589.5 1612.99 1589.5 1621 1589.5 1629.01 1582.78 1635.5 1574.5 1635.5 1566.22 1635.5 1559.5 1629.01 1559.5 1621Z" stroke="#961D0A" stroke-width="4.58333" stroke-linecap="butt" stroke-linejoin="miter" stroke-miterlimit="8" stroke-opacity="1" fill="#FFFFFF" fill-rule="evenodd" fill-opacity="1"/><path d="M1649.5 1621C1649.5 1612.99 1656.22 1606.5 1664.5 1606.5 1672.78 1606.5 1679.5 1612.99 1679.5 1621 1679.5 1629.01 1672.78 1635.5 1664.5 1635.5 1656.22 1635.5 1649.5 1629.01 1649.5 1621Z" stroke="#961D0A" stroke-width="4.58333" stroke-linecap="butt" stroke-linejoin="miter" stroke-miterlimit="8" stroke-opacity="1" fill="#FFFFFF" fill-rule="evenodd" fill-opacity="1"/><rect x="1608.5" y="1635.5" width="29.0002" height="22" stroke="#961D0A" stroke-width="4.58333" stroke-linecap="butt" stroke-linejoin="miter" stroke-miterlimit="8" stroke-opacity="1" fill="#FFFFFF" fill-opacity="1"/><path d="M1563 1493.17C1563 1489.21 1566.21 1486 1570.17 1486L1663.83 1486C1667.79 1486 1671 1489.21 1671 1493.17L1671 1521.83C1671 1525.79 1667.79 1529 1663.83 1529L1570.17 1529C1566.21 1529 1563 1525.79 1563 1521.83Z" stroke="#CB8617" stroke-width="13.75" stroke-linecap="butt" stroke-linejoin="miter" stroke-miterlimit="8" stroke-opacity="1" fill="#FEBF00" fill-rule="evenodd" fill-opacity="1"/><path d="M1267 1880.5C1267 1812.29 1322.29 1757 1390.5 1757 1458.71 1757 1514 1812.29 1514 1880.5 1514 1948.71 1458.71 2004 1390.5 2004 1322.29 2004 1267 1948.71 1267 1880.5Z" stroke="#C47411" stroke-width="13.75" stroke-linecap="butt" stroke-linejoin="miter" stroke-miterlimit="8" stroke-opacity="1" fill="#FB912D" fill-rule="evenodd" fill-opacity="1"/><path d="M1335 1860C1335 1853.92 1339.93 1849 1346 1849 1352.08 1849 1357 1853.92 1357 1860 1357 1866.08 1352.08 1871 1346 1871 1339.93 1871 1335 1866.08 1335 1860Z" stroke="#BF3403" stroke-width="10.3125" stroke-linecap="butt" stroke-linejoin="miter" stroke-miterlimit="8" stroke-opacity="1" fill="#BF3403" fill-rule="evenodd" fill-opacity="1"/><path d="M1425 1860C1425 1853.92 1429.92 1849 1436 1849 1442.07 1849 1447 1853.92 1447 1860 1447 1866.08 1442.07 1871 1436 1871 1429.92 1871 1425 1866.08 1425 1860Z" stroke="#BF3403" stroke-width="10.3125" stroke-linecap="butt" stroke-linejoin="miter" stroke-miterlimit="8" stroke-opacity="1" fill="#BF3403" fill-rule="evenodd" fill-opacity="1"/><path d="M1384 1903 1410.25 1903" stroke="#BF3403" stroke-width="13.75" stroke-linecap="butt" stroke-linejoin="miter" stroke-miterlimit="8" stroke-opacity="1" fill="none" fill-rule="evenodd"/><path d="M1373.36 1894.6C1378.78 1896.11 1382.09 1901.61 1380.77 1906.9 1380.05 1909.77 1378.06 1912.12 1375.33 1913.31" stroke="#BF3403" stroke-width="13.75" stroke-linecap="butt" stroke-linejoin="miter" stroke-miterlimit="8" stroke-opacity="1" fill="none" fill-rule="evenodd"/><path d="M1413.95 1913.73C1408.95 1911.18 1406.79 1905.12 1409.13 1900.2 1410.29 1897.77 1412.41 1895.96 1414.99 1895.19" stroke="#BF3403" stroke-width="13.75" stroke-linecap="butt" stroke-linejoin="miter" stroke-miterlimit="8" stroke-opacity="1" fill="none" fill-rule="evenodd"/><path d="M1331.84 1754.08C1331.16 1746.42 1339.97 1740.46 1351.51 1740.78 1356.19 1740.9 1360.82 1742.07 1364.67 1744.09 1369.56 1739.31 1379.78 1738.47 1387.49 1742.21 1388.84 1742.87 1390.06 1743.64 1391.11 1744.5 1394.95 1740.52 1403.26 1739.69 1409.67 1742.65 1411.45 1743.47 1412.95 1744.53 1414.08 1745.75 1419.93 1742.24 1429.46 1742.84 1435.38 1747.08 1437.86 1748.87 1439.42 1751.11 1439.78 1753.42 1448.38 1756.02 1452.87 1762.57 1449.8 1768.05 1449.54 1768.52 1449.24 1768.96 1448.88 1769.39 1455.23 1776.22 1452.49 1784.63 1442.78 1788.17 1439.76 1789.28 1436.28 1789.81 1432.67 1789.73 1431.84 1796.19 1423.16 1800.44 1413.29 1799.24 1409.99 1798.83 1406.84 1797.84 1404.17 1796.37 1399.98 1803.23 1387.85 1805.97 1377.07 1802.48 1372.56 1801.02 1368.79 1798.61 1366.41 1795.66 1354.59 1798.81 1340.21 1794.69 1334.28 1786.47 1334.21 1786.37 1334.14 1786.27 1334.07 1786.16 1326.61 1785.87 1320.31 1781.63 1320.01 1776.7 1319.85 1774.07 1321.44 1771.64 1324.38 1770.07 1318.26 1766.85 1316.74 1761.18 1320.99 1757.41 1323.43 1755.23 1327.41 1754.06 1331.7 1754.27Z" stroke="#84A821" stroke-width="13.75" stroke-linecap="butt" stroke-linejoin="miter" stroke-miterlimit="8" stroke-opacity="1" fill="#BCEB48" fill-rule="evenodd" fill-opacity="1"/><path d="M1332.24 1771.94C1329.49 1771.76 1326.81 1771.02 1324.55 1769.83M1337.64 1785.72C1336.5 1785.88 1335.33 1785.93 1334.14 1785.89M1366.43 1795.4C1365.7 1794.49 1365.11 1793.54 1364.67 1792.57M1405.37 1793.4C1405.13 1794.35 1404.74 1795.27 1404.21 1796.15M1423.81 1777.76C1429.77 1780.46 1433.2 1785.05 1432.62 1789.55M1448.84 1769.22C1447.65 1770.64 1445.96 1771.83 1443.9 1772.68M1439.82 1753.2C1439.92 1753.84 1439.92 1754.48 1439.84 1755.11M1411.49 1747.67C1412.18 1746.87 1413.04 1746.15 1414.06 1745.54M1389.91 1746.31C1390.23 1745.62 1390.69 1744.97 1391.26 1744.37M1364.66 1744.07C1366.05 1744.8 1367.32 1745.63 1368.44 1746.55M1332.3 1756.28C1332.06 1755.55 1331.91 1754.81 1331.84 1754.08" stroke="#84A821" stroke-width="13.75" stroke-linecap="butt" stroke-linejoin="miter" stroke-miterlimit="8" stroke-opacity="1" fill="none" fill-rule="evenodd"/><path d="M934 1976.5C934 1908.29 989.293 1853 1057.5 1853 1125.71 1853 1181 1908.29 1181 1976.5 1181 2044.71 1125.71 2100 1057.5 2100 989.293 2100 934 2044.71 934 1976.5Z" stroke="#A80402" stroke-width="13.75" stroke-linecap="butt" stroke-linejoin="miter" stroke-miterlimit="8" stroke-opacity="1" fill="#F01B1F" fill-rule="evenodd" fill-opacity="1"/><path d="M1002 1953C1002 1946.92 1006.92 1942 1013 1942 1019.08 1942 1024 1946.92 1024 1953 1024 1959.07 1019.08 1964 1013 1964 1006.92 1964 1002 1959.07 1002 1953Z" stroke="#A80402" stroke-width="10.3125" stroke-linecap="butt" stroke-linejoin="miter" stroke-miterlimit="8" stroke-opacity="1" fill="#A80402" fill-rule="evenodd" fill-opacity="1"/><path d="M1101 1953C1101 1946.92 1105.92 1942 1112 1942 1118.08 1942 1123 1946.92 1123 1953 1123 1959.07 1118.08 1964 1112 1964 1105.92 1964 1101 1959.07 1101 1953Z" stroke="#A80402" stroke-width="10.3125" stroke-linecap="butt" stroke-linejoin="miter" stroke-miterlimit="8" stroke-opacity="1" fill="#A80402" fill-rule="evenodd" fill-opacity="1"/><path d="M1048 2000 1065.5 1978 1083 2000Z" stroke="#A80402" stroke-width="13.75" stroke-linecap="butt" stroke-linejoin="miter" stroke-miterlimit="8" stroke-opacity="1" fill="#FFFFFF" fill-rule="evenodd" fill-opacity="1"/><path d="M51.8675 0C80.5131-2.07175e-14 103.735 36.428 103.735 81.3643" stroke="#684F1E" stroke-width="27.5" stroke-linecap="butt" stroke-linejoin="miter" stroke-miterlimit="8" stroke-opacity="1" fill="none" fill-rule="evenodd" transform="matrix(-0.998809 0.0487934 0.0487934 0.998809 1160.83 1806.91)"/><path d="M20.6979 0.607151C34.0638-3.69034 46.6002 15.0158 48.6986 42.3886 49.0343 46.7671 49.0851 51.2174 48.8499 55.6233" stroke="#A80402" stroke-width="4.58333" stroke-linecap="butt" stroke-linejoin="miter" stroke-miterlimit="8" stroke-opacity="1" fill="none" fill-rule="evenodd" transform="matrix(0.359003 0.933337 0.933337 -0.359003 1026.48 1858.89)"/><path d="M602 1879.5C602 1811.29 657.293 1756 725.5 1756 793.707 1756 849 1811.29 849 1879.5 849 1947.71 793.707 2003 725.5 2003 657.293 2003 602 1947.71 602 1879.5Z" stroke="#CBC146" stroke-width="13.75" stroke-linecap="butt" stroke-linejoin="miter" stroke-miterlimit="8" stroke-opacity="1" fill="#FAEC80" fill-rule="evenodd" fill-opacity="1"/><path d="M663 1861C663 1854.93 667.925 1850 674 1850 680.075 1850 685 1854.93 685 1861 685 1867.08 680.075 1872 674 1872 667.925 1872 663 1867.08 663 1861Z" stroke="#B88C08" stroke-width="10.3125" stroke-linecap="butt" stroke-linejoin="miter" stroke-miterlimit="8" stroke-opacity="1" fill="#B88C08" fill-rule="evenodd" fill-opacity="1"/><path d="M771 1861C771 1854.93 775.701 1850 781.5 1850 787.299 1850 792 1854.93 792 1861 792 1867.08 787.299 1872 781.5 1872 775.701 1872 771 1867.08 771 1861Z" stroke="#B88C08" stroke-width="10.3125" stroke-linecap="butt" stroke-linejoin="miter" stroke-miterlimit="8" stroke-opacity="1" fill="#B88C08" fill-rule="evenodd" fill-opacity="1"/><path d="M774 1894C774 1901.46 772.993 1907.5 771.75 1907.5L733.75 1907.5C732.507 1907.5 731.5 1913.54 731.5 1921 731.5 1913.54 730.493 1907.5 729.25 1907.5L691.25 1907.5C690.007 1907.5 689 1901.46 689 1894" stroke="#B88C08" stroke-width="13.75" stroke-linecap="butt" stroke-linejoin="miter" stroke-miterlimit="8" stroke-opacity="1" fill="none" fill-rule="evenodd"/><path d="M31.2235 0C48.4678-5.77308e-15 62.4471 20.3018 62.4471 45.3454" stroke="#825E23" stroke-width="13.75" stroke-linecap="butt" stroke-linejoin="miter" stroke-miterlimit="8" stroke-opacity="1" fill="none" fill-rule="evenodd" transform="matrix(-0.998809 0.0487934 0.0487934 0.998809 778.663 1735.06)"/><path d="M368 1627.5C368 1559.29 423.293 1504 491.5 1504 559.707 1504 615 1559.29 615 1627.5 615 1695.71 559.707 1751 491.5 1751 423.293 1751 368 1695.71 368 1627.5Z" stroke="#EE7A72" stroke-width="13.75" stroke-linecap="butt" stroke-linejoin="miter" stroke-miterlimit="8" stroke-opacity="1" fill="#FDBCB4" fill-rule="evenodd" fill-opacity="1"/><path d="M432 1607C432 1600.92 436.925 1596 443 1596 449.075 1596 454 1600.92 454 1607 454 1613.08 449.075 1618 443 1618 436.925 1618 432 1613.08 432 1607Z" stroke="#AF2728" stroke-width="10.3125" stroke-linecap="butt" stroke-linejoin="miter" stroke-miterlimit="8" stroke-opacity="1" fill="#C31415" fill-rule="evenodd" fill-opacity="1"/><path d="M539 1607C539 1600.92 543.925 1596 550 1596 556.075 1596 561 1600.92 561 1607 561 1613.08 556.075 1618 550 1618 543.925 1618 539 1613.08 539 1607Z" stroke="#AF2728" stroke-width="10.3125" stroke-linecap="butt" stroke-linejoin="miter" stroke-miterlimit="8" stroke-opacity="1" fill="#C31415" fill-rule="evenodd" fill-opacity="1"/><path d="M486 1650C486 1633.43 492.268 1620 500 1620 507.732 1620 514 1633.43 514 1650 514 1666.57 507.732 1680 500 1680 492.268 1680 486 1666.57 486 1650Z" stroke="#AF2728" stroke-width="10.3125" stroke-linecap="butt" stroke-linejoin="miter" stroke-miterlimit="8" stroke-opacity="1" fill="#FFFFFF" fill-rule="evenodd" fill-opacity="1"/><path d="M513.348 1507.82 505.189 1528.92 501.251 1528.91 496.519 1548.89 492.234 1549.29 481.216 1580.14 481.54 1549.68 486.467 1549.55 486.959 1530.27 493.253 1529.48 493.707 1509.2Z" stroke="#EE7A6F" stroke-width="4.58333" stroke-linecap="butt" stroke-linejoin="miter" stroke-miterlimit="8" stroke-opacity="1" fill="#EE7A6F" fill-rule="evenodd" fill-opacity="1"/><path d="M288 1300.5C288 1232.29 343.293 1177 411.5 1177 479.707 1177 535 1232.29 535 1300.5 535 1368.71 479.707 1424 411.5 1424 343.293 1424 288 1368.71 288 1300.5Z" stroke="#ECBB22" stroke-width="13.75" stroke-linecap="butt" stroke-linejoin="miter" stroke-miterlimit="8" stroke-opacity="1" fill="#F9E512" fill-rule="evenodd" fill-opacity="1"/><path d="M19.473 3.44714C35.552-6.14744 53.9714 4.90237 60.6138 28.1276 60.7662 28.6606 60.9116 29.1977 61.0499 29.7386" stroke="#C98703" stroke-width="13.75" stroke-linecap="butt" stroke-linejoin="miter" stroke-miterlimit="8" stroke-opacity="1" fill="none" fill-rule="evenodd" transform="matrix(-1 0 0 1 509 1253)"/><path d="M341.375 1262.58C356.754 1251.66 375.32 1260.9 382.845 1283.22 383.009 1283.71 383.167 1284.2 383.319 1284.69" stroke="#C98703" stroke-width="13.75" stroke-linecap="butt" stroke-linejoin="miter" stroke-miterlimit="8" stroke-opacity="1" fill="none" fill-rule="evenodd"/><path d="M392 1313.68C392 1307.78 396.781 1303 402.68 1303L431.32 1303C437.218 1303 442 1307.78 442 1313.68L442 1329.32C442 1335.22 437.218 1340 431.32 1340L402.68 1340C396.781 1340 392 1335.22 392 1329.32Z" stroke="#C98703" stroke-width="13.75" stroke-linecap="butt" stroke-linejoin="miter" stroke-miterlimit="8" stroke-opacity="1" fill="#FFFFFF" fill-rule="evenodd" fill-opacity="1"/><path d="M319 1196.95 348.412 1182.49 337.915 1164.46 385.088 1164.46 414.5 1150 443.912 1164.46 491.085 1164.46 480.588 1182.49 510.001 1196.95 467.499 1204.97 457.001 1223 414.5 1214.98 371.999 1223 361.501 1204.97Z" stroke="#84A821" stroke-width="13.75" stroke-linecap="butt" stroke-linejoin="miter" stroke-miterlimit="8" stroke-opacity="1" fill="#BCEB48" fill-rule="evenodd" fill-opacity="1"/><path d="M383 974.5C383 906.293 438.293 851 506.5 851 574.707 851 630 906.293 630 974.5 630 1042.71 574.707 1098 506.5 1098 438.293 1098 383 1042.71 383 974.5Z" stroke="#88B226" stroke-width="13.75" stroke-linecap="butt" stroke-linejoin="miter" stroke-miterlimit="8" stroke-opacity="1" fill="#AFE124" fill-rule="evenodd" fill-opacity="1"/><path d="M444 948C444 941.925 448.925 937 455 937 461.075 937 466 941.925 466 948 466 954.075 461.075 959 455 959 448.925 959 444 954.075 444 948Z" stroke="#437C00" stroke-width="10.3125" stroke-linecap="butt" stroke-linejoin="miter" stroke-miterlimit="8" stroke-opacity="1" fill="#437C00" fill-rule="evenodd" fill-opacity="1"/><path d="M551 948C551 941.925 555.925 937 562 937 568.075 937 573 941.925 573 948 573 954.075 568.075 959 562 959 555.925 959 551 954.075 551 948Z" stroke="#437C00" stroke-width="10.3125" stroke-linecap="butt" stroke-linejoin="miter" stroke-miterlimit="8" stroke-opacity="1" fill="#437C00" fill-rule="evenodd" fill-opacity="1"/><path d="M0 0 32.2872 18.0475" stroke="#437C00" stroke-width="13.75" stroke-linecap="butt" stroke-linejoin="miter" stroke-miterlimit="8" stroke-opacity="1" fill="none" fill-rule="evenodd" transform="matrix(1 0 0 -1 479 997.047)"/><path d="M539.177 995.764 507 981" stroke="#437C00" stroke-width="13.75" stroke-linecap="butt" stroke-linejoin="miter" stroke-miterlimit="8" stroke-opacity="1" fill="none" fill-rule="evenodd"/><path d="M51.8675 0C80.5131-7.22121e-15 103.735 25.3944 103.735 56.72" stroke="#488101" stroke-width="27.5" stroke-linecap="butt" stroke-linejoin="miter" stroke-miterlimit="8" stroke-opacity="1" fill="none" fill-rule="evenodd" transform="matrix(-0.979372 -0.202067 -0.202067 0.979372 675.583 854.887)"/><path d="M609 758.5C609 690.293 664.293 635 732.5 635 800.707 635 856 690.293 856 758.5 856 826.707 800.707 882 732.5 882 664.293 882 609 826.707 609 758.5Z" stroke="#0E8904" stroke-width="13.75" stroke-linecap="butt" stroke-linejoin="miter" stroke-miterlimit="8" stroke-opacity="1" fill="#60D114" fill-rule="evenodd" fill-opacity="1"/><path d="M609.5 758.5 856.542 758.501" stroke="#1C850B" stroke-width="55" stroke-linecap="butt" stroke-linejoin="miter" stroke-miterlimit="8" stroke-opacity="1" fill="none" fill-rule="evenodd"/><path d="M764 739C764 730.716 770.716 724 779 724 787.284 724 794 730.716 794 739 794 747.284 787.284 754 779 754 770.716 754 764 747.284 764 739Z" stroke="#004800" stroke-width="10.3125" stroke-linecap="butt" stroke-linejoin="miter" stroke-miterlimit="8" stroke-opacity="1" fill="#004800" fill-rule="evenodd" fill-opacity="1"/><path d="M680.45 759.85 674.079 753.48 688.119 739.44 674.079 725.401 680.45 719.031 700.859 739.44Z" stroke="#004800" stroke-width="4.58333" stroke-linecap="butt" stroke-linejoin="miter" stroke-miterlimit="8" stroke-opacity="1" fill="#004800" fill-rule="evenodd" fill-opacity="1"/><path d="M713.835 776.878 720.206 770.507 734.245 784.547 748.284 770.507 754.654 776.878 734.245 797.287Z" stroke="#004800" stroke-width="4.58333" stroke-linecap="butt" stroke-linejoin="miter" stroke-miterlimit="8" stroke-opacity="1" fill="#004800" fill-rule="evenodd" fill-opacity="1"/><path d="M629.5 698.5 661.101 658.5 809.899 658.5 841.5 698.5Z" stroke="#1C850B" stroke-width="4.58333" stroke-linecap="butt" stroke-linejoin="miter" stroke-miterlimit="8" stroke-opacity="1" fill="#1C850B" fill-rule="evenodd" fill-opacity="1"/><path d="M839.5 815.5 807.899 855.5 659.101 855.5 627.5 815.5Z" stroke="#1C850B" stroke-width="4.58333" stroke-linecap="butt" stroke-linejoin="miter" stroke-miterlimit="8" stroke-opacity="1" fill="#1C850B" fill-rule="evenodd" fill-opacity="1"/></g></g></svg>