<svg width="389" height="463" xmlns="http://www.w3.org/2000/svg" xmlns:xlink="http://www.w3.org/1999/xlink" xml:space="preserve" overflow="hidden"><g transform="translate(-2374 -169)"><g><path d="M2384 437.5C2384 335.603 2466.6 253 2568.5 253 2670.4 253 2753 335.603 2753 437.5 2753 539.396 2670.4 622 2568.5 622 2466.6 622 2384 539.396 2384 437.5Z" stroke="#B63320" stroke-width="13.75" stroke-linecap="butt" stroke-linejoin="miter" stroke-miterlimit="8" stroke-opacity="1" fill="#D73125" fill-rule="evenodd" fill-opacity="1"/><path d="M77.4809 0C120.272-3.09484e-14 154.962 54.4171 154.962 121.544" stroke="#89C65B" stroke-width="27.5" stroke-linecap="butt" stroke-linejoin="miter" stroke-miterlimit="8" stroke-opacity="1" fill="none" fill-rule="evenodd" transform="matrix(-0.93241 0.361402 0.361402 0.93241 2671.9 159.648)"/><path d="M2481.5 416.5C2481.5 404.35 2491.35 394.5 2503.5 394.5 2515.65 394.5 2525.5 404.35 2525.5 416.5 2525.5 428.65 2515.65 438.5 2503.5 438.5 2491.35 438.5 2481.5 428.65 2481.5 416.5Z" stroke="#961D0A" stroke-width="4.58333" stroke-linecap="butt" stroke-linejoin="miter" stroke-miterlimit="8" stroke-opacity="1" fill="#FFFFFF" fill-rule="evenodd" fill-opacity="1"/><path d="M2616.5 416.5C2616.5 404.35 2626.35 394.5 2638.5 394.5 2650.65 394.5 2660.5 404.35 2660.5 416.5 2660.5 428.65 2650.65 438.5 2638.5 438.5 2626.35 438.5 2616.5 428.65 2616.5 416.5Z" stroke="#961D0A" stroke-width="4.58333" stroke-linecap="butt" stroke-linejoin="miter" stroke-miterlimit="8" stroke-opacity="1" fill="#FFFFFF" fill-rule="evenodd" fill-opacity="1"/><rect x="2543.5" y="467.5" width="65" height="22" stroke="#961D0A" stroke-width="4.58333" stroke-linecap="butt" stroke-linejoin="miter" stroke-miterlimit="8" stroke-opacity="1" fill="#FFFFFF" fill-opacity="1"/></g></g></svg>