<svg width="408" height="390" xmlns="http://www.w3.org/2000/svg" xmlns:xlink="http://www.w3.org/1999/xlink" xml:space="preserve" overflow="hidden"><g transform="translate(-3075 -2002)"><g><path d="M3085 2198.5C3085 2096.6 3167.6 2014 3269.5 2014 3371.4 2014 3454 2096.6 3454 2198.5 3454 2300.4 3371.4 2383 3269.5 2383 3167.6 2383 3085 2300.4 3085 2198.5Z" stroke="#0E8904" stroke-width="13.75" stroke-linecap="butt" stroke-linejoin="miter" stroke-miterlimit="8" stroke-opacity="1" fill="#60D114" fill-rule="evenodd" fill-opacity="1"/><path d="M3085.5 2199.5 3454.54 2199.5" stroke="#1C850B" stroke-width="55" stroke-linecap="butt" stroke-linejoin="miter" stroke-miterlimit="8" stroke-opacity="1" fill="none" fill-rule="evenodd"/><path d="M3316 2170C3316 2157.85 3326.07 2148 3338.5 2148 3350.93 2148 3361 2157.85 3361 2170 3361 2182.15 3350.93 2192 3338.5 2192 3326.07 2192 3316 2182.15 3316 2170Z" stroke="#004800" stroke-width="10.3125" stroke-linecap="butt" stroke-linejoin="miter" stroke-miterlimit="8" stroke-opacity="1" fill="#004800" fill-rule="evenodd" fill-opacity="1"/><path d="M3191.23 2200.94 3181.71 2191.43 3202.68 2170.45 3181.71 2149.48 3191.23 2139.96 3221.72 2170.45Z" stroke="#004800" stroke-width="4.58333" stroke-linecap="butt" stroke-linejoin="miter" stroke-miterlimit="8" stroke-opacity="1" fill="#004800" fill-rule="evenodd" fill-opacity="1"/><path d="M3241.1 2226.38 3250.62 2216.86 3271.59 2237.83 3292.56 2216.86 3302.08 2226.38 3271.59 2256.87Z" stroke="#004800" stroke-width="4.58333" stroke-linecap="butt" stroke-linejoin="miter" stroke-miterlimit="8" stroke-opacity="1" fill="#004800" fill-rule="evenodd" fill-opacity="1"/><path d="M3114.5 2108.5 3161.11 2049.5 3385.89 2049.5 3432.5 2108.5Z" stroke="#1C850B" stroke-width="4.58333" stroke-linecap="butt" stroke-linejoin="miter" stroke-miterlimit="8" stroke-opacity="1" fill="#1C850B" fill-rule="evenodd" fill-opacity="1"/><path d="M3428.5 2284.5 3381.89 2343.5 3158.11 2343.5 3111.5 2284.5Z" stroke="#1C850B" stroke-width="4.58333" stroke-linecap="butt" stroke-linejoin="miter" stroke-miterlimit="8" stroke-opacity="1" fill="#1C850B" fill-rule="evenodd" fill-opacity="1"/></g></g></svg>