<svg width="385" height="454" xmlns="http://www.w3.org/2000/svg" xmlns:xlink="http://www.w3.org/1999/xlink" xml:space="preserve" overflow="hidden"><g transform="translate(-3080 -178)"><g><path d="M3087 437.5C3087 335.603 3169.6 253 3271.5 253 3373.4 253 3456 335.603 3456 437.5 3456 539.396 3373.4 622 3271.5 622 3169.6 622 3087 539.396 3087 437.5Z" stroke="#DD301E" stroke-width="13.75" stroke-linecap="butt" stroke-linejoin="miter" stroke-miterlimit="8" stroke-opacity="1" fill="#FF765B" fill-rule="evenodd" fill-opacity="1"/><path d="M3175.83 242.547C3174.51 229.876 3190.07 220.166 3210.58 220.858 3218.9 221.139 3227.15 223.133 3234.02 226.523 3242.63 218.707 3260.77 217.472 3274.53 223.764 3276.94 224.865 3279.11 226.157 3280.99 227.601 3287.75 221.078 3302.5 219.83 3313.94 224.813 3317.11 226.192 3319.81 227.967 3321.82 230.001 3332.16 224.292 3349.1 225.417 3359.68 232.512 3364.13 235.495 3366.92 239.219 3367.59 243.046 3382.91 247.461 3390.98 258.352 3385.62 267.371 3385.17 268.129 3384.63 268.861 3384 269.56 3395.37 280.938 3390.65 294.792 3373.44 300.502 3368.09 302.28 3361.91 303.115 3355.51 302.926 3354.12 313.577 3338.76 320.479 3321.21 318.343 3315.34 317.629 3309.72 315.945 3304.96 313.476 3297.62 324.742 3276.11 329.082 3256.91 323.171 3248.86 320.693 3242.13 316.654 3237.87 311.743 3216.92 316.763 3191.3 309.757 3180.65 296.094 3180.52 295.922 3180.39 295.749 3180.26 295.576 3167 294.976 3155.76 287.883 3155.14 279.733 3154.82 275.388 3157.62 271.406 3162.81 268.846 3151.9 263.443 3149.12 254.055 3156.6 247.877 3160.91 244.313 3167.97 242.447 3175.59 242.854Z" stroke="#84A821" stroke-width="13.75" stroke-linecap="butt" stroke-linejoin="miter" stroke-miterlimit="8" stroke-opacity="1" fill="#BCEB48" fill-rule="evenodd" fill-opacity="1"/><path d="M3176.81 272.045C3171.92 271.709 3167.14 270.459 3163.11 268.462M3186.6 294.895C3184.59 295.139 3182.5 295.215 3180.39 295.12M3237.9 311.314C3236.59 309.802 3235.53 308.226 3234.73 306.613M3307.04 308.587C3306.64 310.151 3305.97 311.665 3305.03 313.103M3339.57 283.025C3350.21 287.572 3356.37 295.199 3355.41 302.632M3383.92 269.287C3381.84 271.614 3378.85 273.544 3375.19 274.928M3367.66 242.682C3367.85 243.741 3367.87 244.796 3367.72 245.833M3317.25 233.128C3318.45 231.818 3319.98 230.645 3321.79 229.647M3278.89 230.561C3279.45 229.428 3280.25 228.359 3281.26 227.38M3233.99 226.495C3236.48 227.722 3238.75 229.113 3240.76 230.64M3176.67 246.177C3176.24 244.971 3175.96 243.758 3175.83 242.548" stroke="#84A821" stroke-width="13.75" stroke-linecap="butt" stroke-linejoin="miter" stroke-miterlimit="8" stroke-opacity="1" fill="none" fill-rule="evenodd"/><rect x="3251" y="188" width="40.0002" height="65" stroke="#84A821" stroke-width="13.75" stroke-linecap="butt" stroke-linejoin="miter" stroke-miterlimit="8" stroke-opacity="1" fill="#BCEB48" fill-opacity="1"/><path d="M3201.5 417C3201.5 405.126 3206.87 395.5 3213.5 395.5 3220.13 395.5 3225.5 405.126 3225.5 417 3225.5 428.874 3220.13 438.5 3213.5 438.5 3206.87 438.5 3201.5 428.874 3201.5 417Z" stroke="#961D0A" stroke-width="4.58333" stroke-linecap="butt" stroke-linejoin="miter" stroke-miterlimit="8" stroke-opacity="1" fill="#8D1608" fill-rule="evenodd" fill-opacity="1"/><path d="M3336.5 417C3336.5 405.126 3341.87 395.5 3348.5 395.5 3355.13 395.5 3360.5 405.126 3360.5 417 3360.5 428.874 3355.13 438.5 3348.5 438.5 3341.87 438.5 3336.5 428.874 3336.5 417Z" stroke="#961D0A" stroke-width="4.58333" stroke-linecap="butt" stroke-linejoin="miter" stroke-miterlimit="8" stroke-opacity="1" fill="#8D1608" fill-rule="evenodd" fill-opacity="1"/><rect x="3275.5" y="461.5" width="24" height="49.9998" stroke="#8D2818" stroke-width="4.58333" stroke-linecap="butt" stroke-linejoin="miter" stroke-miterlimit="8" stroke-opacity="1" fill="#FFFFFF" fill-opacity="1"/><path d="M3183.5 526.5C3183.5 520.977 3188.87 516.5 3195.5 516.5 3202.13 516.5 3207.5 520.977 3207.5 526.5 3207.5 532.023 3202.13 536.5 3195.5 536.5 3188.87 536.5 3183.5 532.023 3183.5 526.5Z" stroke="#8D2818" stroke-width="4.58333" stroke-linecap="butt" stroke-linejoin="miter" stroke-miterlimit="8" stroke-opacity="1" fill="#FFFFFF" fill-rule="evenodd" fill-opacity="1"/><path d="M3320.5 577.5C3320.5 571.977 3324.08 567.5 3328.5 567.5 3332.92 567.5 3336.5 571.977 3336.5 577.5 3336.5 583.023 3332.92 587.5 3328.5 587.5 3324.08 587.5 3320.5 583.023 3320.5 577.5Z" stroke="#8D2818" stroke-width="4.58333" stroke-linecap="butt" stroke-linejoin="miter" stroke-miterlimit="8" stroke-opacity="1" fill="#FFFFFF" fill-rule="evenodd" fill-opacity="1"/><path d="M3130.5 436.5C3130.5 430.977 3134.08 426.5 3138.5 426.5 3142.92 426.5 3146.5 430.977 3146.5 436.5 3146.5 442.023 3142.92 446.5 3138.5 446.5 3134.08 446.5 3130.5 442.023 3130.5 436.5Z" stroke="#8D2818" stroke-width="4.58333" stroke-linecap="butt" stroke-linejoin="miter" stroke-miterlimit="8" stroke-opacity="1" fill="#FFFFFF" fill-rule="evenodd" fill-opacity="1"/><path d="M3390.99 471.217C3394.16 466.788 3399.73 465.348 3403.44 468 3407.14 470.653 3407.57 476.394 3404.4 480.823 3401.23 485.252 3395.66 486.692 3391.95 484.04 3388.25 481.387 3387.81 475.646 3390.99 471.217Z" stroke="#8D2818" stroke-width="4.58333" stroke-linecap="butt" stroke-linejoin="miter" stroke-miterlimit="8" stroke-opacity="1" fill="#FFFFFF" fill-rule="evenodd" fill-opacity="1"/><path d="M3365.56 344.227C3368.73 339.797 3374.3 338.357 3378.01 341.01 3381.71 343.663 3382.14 349.404 3378.97 353.833 3375.8 358.262 3370.23 359.702 3366.52 357.049 3362.82 354.397 3362.39 348.656 3365.56 344.227Z" stroke="#8D2818" stroke-width="4.58333" stroke-linecap="butt" stroke-linejoin="miter" stroke-miterlimit="8" stroke-opacity="1" fill="#FFFFFF" fill-rule="evenodd" fill-opacity="1"/><path d="M3183.73 357.094C3181.46 352.141 3182.97 346.588 3187.12 344.689 3191.26 342.79 3196.46 345.266 3198.73 350.218 3201 355.17 3199.48 360.724 3195.34 362.622 3191.2 364.521 3186 362.046 3183.73 357.094Z" stroke="#8D2818" stroke-width="4.58333" stroke-linecap="butt" stroke-linejoin="miter" stroke-miterlimit="8" stroke-opacity="1" fill="#FFFFFF" fill-rule="evenodd" fill-opacity="1"/></g></g></svg>