<svg width="371" height="472" xmlns="http://www.w3.org/2000/svg" xmlns:xlink="http://www.w3.org/1999/xlink" xml:space="preserve" overflow="hidden"><g transform="translate(-3726 -160)"><g><path d="M3870.91 316.355 3859.92 279.682 3823.33 251.219 3843.12 229.363 3829.52 192.385 3868.49 198.148 3885.85 174.316 3921.18 204.323 3959.33 207.597 3970.32 244.27 4006.91 272.733 3987.12 294.589 4000.72 331.567 3961.74 325.804 3944.38 349.636 3909.05 319.629Z" stroke="#84A821" stroke-width="13.75" stroke-linecap="butt" stroke-linejoin="miter" stroke-miterlimit="8" stroke-opacity="1" fill="#BCEB48" fill-rule="evenodd" fill-opacity="1"/><path d="M3919 427C3919 394.967 3944.97 369 3977 369 4009.03 369 4035 394.967 4035 427 4035 459.033 4009.03 485 3977 485 3944.97 485 3919 459.033 3919 427Z" stroke="#8E3CFB" stroke-width="13.75" stroke-linecap="butt" stroke-linejoin="miter" stroke-miterlimit="8" stroke-opacity="1" fill="#A974FF" fill-rule="evenodd" fill-opacity="1"/><path d="M3801 426C3801 393.968 3827.19 368 3859.5 368 3891.81 368 3918 393.968 3918 426 3918 458.033 3891.81 484 3859.5 484 3827.19 484 3801 458.033 3801 426Z" stroke="#8E3CFB" stroke-width="13.75" stroke-linecap="butt" stroke-linejoin="miter" stroke-miterlimit="8" stroke-opacity="1" fill="#A974FF" fill-rule="evenodd" fill-opacity="1"/><path d="M3792 318C3792 285.967 3818.19 260 3850.5 260 3882.81 260 3909 285.967 3909 318 3909 350.033 3882.81 376 3850.5 376 3818.19 376 3792 350.033 3792 318Z" stroke="#7230C8" stroke-width="13.75" stroke-linecap="butt" stroke-linejoin="miter" stroke-miterlimit="8" stroke-opacity="1" fill="#A974FF" fill-rule="evenodd" fill-opacity="1"/><path d="M3909 314.5C3909 282.191 3935.19 256 3967.5 256 3999.81 256 4026 282.191 4026 314.5 4026 346.809 3999.81 373 3967.5 373 3935.19 373 3909 346.809 3909 314.5Z" stroke="#7230C8" stroke-width="13.75" stroke-linecap="butt" stroke-linejoin="miter" stroke-miterlimit="8" stroke-opacity="1" fill="#A974FF" fill-rule="evenodd" fill-opacity="1"/><path d="M3734 383.5C3734 351.191 3760.19 325 3792.5 325 3824.81 325 3851 351.191 3851 383.5 3851 415.809 3824.81 442 3792.5 442 3760.19 442 3734 415.809 3734 383.5Z" stroke="#8E3CFB" stroke-width="13.75" stroke-linecap="butt" stroke-linejoin="miter" stroke-miterlimit="8" stroke-opacity="1" fill="#A974FF" fill-rule="evenodd" fill-opacity="1"/><path d="M3852 383.5C3852 351.191 3877.97 325 3910 325 3942.03 325 3968 351.191 3968 383.5 3968 415.809 3942.03 442 3910 442 3877.97 442 3852 415.809 3852 383.5Z" stroke="#8E3CFB" stroke-width="13.75" stroke-linecap="butt" stroke-linejoin="miter" stroke-miterlimit="8" stroke-opacity="1" fill="#A974FF" fill-rule="evenodd" fill-opacity="1"/><path d="M3973 382.5C3973 350.191 3998.97 324 4031 324 4063.03 324 4089 350.191 4089 382.5 4089 414.809 4063.03 441 4031 441 3998.97 441 3973 414.809 3973 382.5Z" stroke="#8E3CFB" stroke-width="13.75" stroke-linecap="butt" stroke-linejoin="miter" stroke-miterlimit="8" stroke-opacity="1" fill="#A974FF" fill-rule="evenodd" fill-opacity="1"/><path d="M3741 459.5C3741 427.191 3767.19 401 3799.5 401 3831.81 401 3858 427.191 3858 459.5 3858 491.809 3831.81 518 3799.5 518 3767.19 518 3741 491.809 3741 459.5Z" stroke="#A25AFF" stroke-width="13.75" stroke-linecap="butt" stroke-linejoin="miter" stroke-miterlimit="8" stroke-opacity="1" fill="#A974FF" fill-rule="evenodd" fill-opacity="1"/><path d="M3851 460.5C3851 428.191 3877.19 402 3909.5 402 3941.81 402 3968 428.191 3968 460.5 3968 492.809 3941.81 519 3909.5 519 3877.19 519 3851 492.809 3851 460.5Z" stroke="#A25AFF" stroke-width="13.75" stroke-linecap="butt" stroke-linejoin="miter" stroke-miterlimit="8" stroke-opacity="1" fill="#A974FF" fill-rule="evenodd" fill-opacity="1"/><path d="M3962 464.5C3962 432.191 3988.19 406 4020.5 406 4052.81 406 4079 432.191 4079 464.5 4079 496.809 4052.81 523 4020.5 523 3988.19 523 3962 496.809 3962 464.5Z" stroke="#A25AFF" stroke-width="13.75" stroke-linecap="butt" stroke-linejoin="miter" stroke-miterlimit="8" stroke-opacity="1" fill="#A974FF" fill-rule="evenodd" fill-opacity="1"/><path d="M3776 522.5C3776 490.191 3802.19 464 3834.5 464 3866.81 464 3893 490.191 3893 522.5 3893 554.809 3866.81 581 3834.5 581 3802.19 581 3776 554.809 3776 522.5Z" stroke="#A25AFF" stroke-width="13.75" stroke-linecap="butt" stroke-linejoin="miter" stroke-miterlimit="8" stroke-opacity="1" fill="#A974FF" fill-rule="evenodd" fill-opacity="1"/><path d="M3924 528.5C3924 496.191 3950.19 470 3982.5 470 4014.81 470 4041 496.191 4041 528.5 4041 560.809 4014.81 587 3982.5 587 3950.19 587 3924 560.809 3924 528.5Z" stroke="#A25AFF" stroke-width="13.75" stroke-linecap="butt" stroke-linejoin="miter" stroke-miterlimit="8" stroke-opacity="1" fill="#A974FF" fill-rule="evenodd" fill-opacity="1"/><path d="M3853 567C3853 534.968 3878.97 509 3911 509 3943.03 509 3969 534.968 3969 567 3969 599.032 3943.03 625 3911 625 3878.97 625 3853 599.032 3853 567Z" stroke="#A25AFF" stroke-width="13.75" stroke-linecap="butt" stroke-linejoin="miter" stroke-miterlimit="8" stroke-opacity="1" fill="#A974FF" fill-rule="evenodd" fill-opacity="1"/><path d="M3827.14 408.369C3822.19 395.963 3826.19 382.711 3836.08 378.769 3845.96 374.827 3857.99 381.688 3862.93 394.094 3867.88 406.499 3863.88 419.751 3853.99 423.693 3844.11 427.635 3832.09 420.774 3827.14 408.369Z" stroke="#5810D8" stroke-width="4.58333" stroke-linecap="butt" stroke-linejoin="miter" stroke-miterlimit="8" stroke-opacity="1" fill="#5810D8" fill-rule="evenodd" fill-opacity="1"/><path d="M3955.63 397.83C3962.17 385.333 3974.35 378.801 3982.84 383.24 3991.33 387.679 3992.92 401.408 3986.39 413.905 3979.86 426.402 3967.68 432.934 3959.19 428.495 3950.69 424.056 3949.1 410.327 3955.63 397.83Z" stroke="#5810D8" stroke-width="4.58333" stroke-linecap="butt" stroke-linejoin="miter" stroke-miterlimit="8" stroke-opacity="1" fill="#5810D8" fill-rule="evenodd" fill-opacity="1"/><path d="M3945 468 3912 538 3879 468Z" stroke="#5810D8" stroke-width="10.3125" stroke-linecap="butt" stroke-linejoin="miter" stroke-miterlimit="8" stroke-opacity="1" fill="#FFFFFF" fill-rule="evenodd" fill-opacity="1"/></g></g></svg>