<svg width="385" height="422" xmlns="http://www.w3.org/2000/svg" xmlns:xlink="http://www.w3.org/1999/xlink" xml:space="preserve" overflow="hidden"><g transform="translate(-2374 -788)"><g><path d="M2383 1018.5C2383 916.603 2465.6 834 2567.5 834 2669.4 834 2752 916.603 2752 1018.5 2752 1120.4 2669.4 1203 2567.5 1203 2465.6 1203 2383 1120.4 2383 1018.5Z" stroke="#CB8617" stroke-width="13.75" stroke-linecap="butt" stroke-linejoin="miter" stroke-miterlimit="8" stroke-opacity="1" fill="#FEBF00" fill-rule="evenodd" fill-opacity="1"/><path d="M2482.5 1000.5C2482.5 988.35 2492.13 978.5 2504 978.5 2515.87 978.5 2525.5 988.35 2525.5 1000.5 2525.5 1012.65 2515.87 1022.5 2504 1022.5 2492.13 1022.5 2482.5 1012.65 2482.5 1000.5Z" stroke="#961D0A" stroke-width="4.58333" stroke-linecap="butt" stroke-linejoin="miter" stroke-miterlimit="8" stroke-opacity="1" fill="#FFFFFF" fill-rule="evenodd" fill-opacity="1"/><path d="M2616.5 1000.5C2616.5 988.35 2626.35 978.5 2638.5 978.5 2650.65 978.5 2660.5 988.35 2660.5 1000.5 2660.5 1012.65 2650.65 1022.5 2638.5 1022.5 2626.35 1022.5 2616.5 1012.65 2616.5 1000.5Z" stroke="#961D0A" stroke-width="4.58333" stroke-linecap="butt" stroke-linejoin="miter" stroke-miterlimit="8" stroke-opacity="1" fill="#FFFFFF" fill-rule="evenodd" fill-opacity="1"/><rect x="2554.5" y="1022.5" width="43" height="31.9999" stroke="#961D0A" stroke-width="4.58333" stroke-linecap="butt" stroke-linejoin="miter" stroke-miterlimit="8" stroke-opacity="1" fill="#FFFFFF" fill-opacity="1"/><path d="M2486 808.667C2486 802.776 2490.78 798 2496.67 798L2638.33 798C2644.22 798 2649 802.776 2649 808.667L2649 851.333C2649 857.224 2644.22 862 2638.33 862L2496.67 862C2490.78 862 2486 857.224 2486 851.333Z" stroke="#CB8617" stroke-width="13.75" stroke-linecap="butt" stroke-linejoin="miter" stroke-miterlimit="8" stroke-opacity="1" fill="#FEBF00" fill-rule="evenodd" fill-opacity="1"/></g></g></svg>