<svg width="389" height="458" xmlns="http://www.w3.org/2000/svg" xmlns:xlink="http://www.w3.org/1999/xlink" xml:space="preserve" overflow="hidden"><g transform="translate(-3717 -742)"><g><path d="M3727 1006.5C3727 904.603 3809.6 822 3911.5 822 4013.4 822 4096 904.603 4096 1006.5 4096 1108.4 4013.4 1191 3911.5 1191 3809.6 1191 3727 1108.4 3727 1006.5Z" stroke="#A80402" stroke-width="13.75" stroke-linecap="butt" stroke-linejoin="miter" stroke-miterlimit="8" stroke-opacity="1" fill="#F01B1F" fill-rule="evenodd" fill-opacity="1"/><path d="M3829 971C3829 962.163 3836.39 955 3845.5 955 3854.61 955 3862 962.163 3862 971 3862 979.836 3854.61 987 3845.5 987 3836.39 987 3829 979.836 3829 971Z" stroke="#A80402" stroke-width="10.3125" stroke-linecap="butt" stroke-linejoin="miter" stroke-miterlimit="8" stroke-opacity="1" fill="#A80402" fill-rule="evenodd" fill-opacity="1"/><path d="M3978 971C3978 962.163 3985.16 955 3994 955 4002.84 955 4010 962.163 4010 971 4010 979.836 4002.84 987 3994 987 3985.16 987 3978 979.836 3978 971Z" stroke="#A80402" stroke-width="10.3125" stroke-linecap="butt" stroke-linejoin="miter" stroke-miterlimit="8" stroke-opacity="1" fill="#A80402" fill-rule="evenodd" fill-opacity="1"/><path d="M3898 1041 3924 1009 3950 1041Z" stroke="#A80402" stroke-width="13.75" stroke-linecap="butt" stroke-linejoin="miter" stroke-miterlimit="8" stroke-opacity="1" fill="#FFFFFF" fill-rule="evenodd" fill-opacity="1"/><path d="M77.4809 0C120.272-3.09484e-14 154.962 54.4171 154.962 121.544" stroke="#684F1E" stroke-width="27.5" stroke-linecap="butt" stroke-linejoin="miter" stroke-miterlimit="8" stroke-opacity="1" fill="none" fill-rule="evenodd" transform="matrix(-0.998809 0.0487934 0.0487934 0.998809 4066.73 752.969)"/><path d="M30.9191 0.90698C50.8855-5.51274 69.6126 22.4311 72.7473 63.3212 73.2487 69.862 73.3247 76.51 72.9733 83.0916" stroke="#A80402" stroke-width="4.58333" stroke-linecap="butt" stroke-linejoin="miter" stroke-miterlimit="8" stroke-opacity="1" fill="none" fill-rule="evenodd" transform="matrix(0.359003 0.933337 0.933337 -0.359003 3866.04 830.612)"/></g></g></svg>