<svg width="389" height="412" xmlns="http://www.w3.org/2000/svg" xmlns:xlink="http://www.w3.org/1999/xlink" xml:space="preserve" overflow="hidden"><g transform="translate(-3080 -802)"><g><path d="M3090 1021.5C3090 919.604 3172.6 837 3274.5 837 3376.4 837 3459 919.604 3459 1021.5 3459 1123.4 3376.4 1206 3274.5 1206 3172.6 1206 3090 1123.4 3090 1021.5Z" stroke="#C47411" stroke-width="13.75" stroke-linecap="butt" stroke-linejoin="miter" stroke-miterlimit="8" stroke-opacity="1" fill="#FB912D" fill-rule="evenodd" fill-opacity="1"/><path d="M3191 990.5C3191 981.387 3198.39 974 3207.5 974 3216.61 974 3224 981.387 3224 990.5 3224 999.612 3216.61 1007 3207.5 1007 3198.39 1007 3191 999.612 3191 990.5Z" stroke="#BF3403" stroke-width="10.3125" stroke-linecap="butt" stroke-linejoin="miter" stroke-miterlimit="8" stroke-opacity="1" fill="#BF3403" fill-rule="evenodd" fill-opacity="1"/><path d="M3326 990.5C3326 981.387 3333.39 974 3342.5 974 3351.61 974 3359 981.387 3359 990.5 3359 999.612 3351.61 1007 3342.5 1007 3333.39 1007 3326 999.612 3326 990.5Z" stroke="#BF3403" stroke-width="10.3125" stroke-linecap="butt" stroke-linejoin="miter" stroke-miterlimit="8" stroke-opacity="1" fill="#BF3403" fill-rule="evenodd" fill-opacity="1"/><path d="M3265 1055 3304.21 1055" stroke="#BF3403" stroke-width="13.75" stroke-linecap="butt" stroke-linejoin="miter" stroke-miterlimit="8" stroke-opacity="1" fill="none" fill-rule="evenodd"/><path d="M3249.06 1042.23C3257.15 1044.48 3262.11 1052.7 3260.13 1060.6 3259.06 1064.89 3256.08 1068.4 3252.01 1070.17" stroke="#BF3403" stroke-width="13.75" stroke-linecap="butt" stroke-linejoin="miter" stroke-miterlimit="8" stroke-opacity="1" fill="none" fill-rule="evenodd"/><path d="M3309.7 1070.8C3302.22 1066.99 3298.99 1057.94 3302.5 1050.59 3304.23 1046.96 3307.39 1044.26 3311.25 1043.11" stroke="#BF3403" stroke-width="13.75" stroke-linecap="butt" stroke-linejoin="miter" stroke-miterlimit="8" stroke-opacity="1" fill="none" fill-rule="evenodd"/><path d="M3187.04 832.316C3186.02 820.867 3199.18 811.969 3216.42 812.441 3223.41 812.632 3230.33 814.374 3236.08 817.388 3243.39 810.255 3258.65 809.001 3270.17 814.588 3272.19 815.565 3274.01 816.718 3275.57 818.01 3281.3 812.06 3293.72 810.82 3303.3 815.24 3305.95 816.464 3308.21 818.049 3309.89 819.873 3318.62 814.633 3332.86 815.522 3341.7 821.86 3345.42 824.523 3347.74 827.87 3348.27 831.327 3361.12 835.204 3367.83 844.993 3363.25 853.19 3362.86 853.879 3362.41 854.544 3361.87 855.181 3371.35 865.386 3367.27 877.95 3352.76 883.244 3348.25 884.892 3343.05 885.693 3337.66 885.57 3336.42 895.213 3323.45 901.57 3308.71 899.77 3303.78 899.169 3299.07 897.688 3295.08 895.491 3288.83 905.735 3270.71 909.822 3254.61 904.62 3247.86 902.439 3242.23 898.838 3238.68 894.428 3221.02 899.126 3199.54 892.982 3190.69 880.706 3190.58 880.551 3190.47 880.396 3190.36 880.24 3179.22 879.797 3169.81 873.467 3169.36 866.101 3169.12 862.175 3171.51 858.552 3175.89 856.198 3166.75 851.393 3164.49 842.924 3170.82 837.281 3174.48 834.025 3180.42 832.285 3186.83 832.596Z" stroke="#84A821" stroke-width="13.75" stroke-linecap="butt" stroke-linejoin="miter" stroke-miterlimit="8" stroke-opacity="1" fill="#BCEB48" fill-rule="evenodd" fill-opacity="1"/><path d="M3187.64 858.986C3183.53 858.719 3179.52 857.624 3176.14 855.849M3195.7 879.576C3194 879.813 3192.25 879.897 3190.48 879.826M3238.71 894.04C3237.62 892.682 3236.74 891.265 3236.08 889.812M3296.87 891.054C3296.52 892.472 3295.94 893.846 3295.14 895.154M3324.42 867.692C3333.33 871.724 3338.45 878.576 3337.58 885.305M3361.81 854.935C3360.04 857.055 3357.51 858.823 3354.43 860.102M3348.34 830.997C3348.49 831.953 3348.49 832.907 3348.36 833.846M3306.02 822.736C3307.04 821.542 3308.34 820.47 3309.86 819.554M3273.78 820.703C3274.26 819.673 3274.94 818.701 3275.8 817.807M3236.06 817.362C3238.15 818.453 3240.04 819.695 3241.72 821.06M3187.72 835.592C3187.36 834.506 3187.13 833.41 3187.04 832.317" stroke="#84A821" stroke-width="13.75" stroke-linecap="butt" stroke-linejoin="miter" stroke-miterlimit="8" stroke-opacity="1" fill="none" fill-rule="evenodd"/></g></g></svg>