<svg width="385" height="417" xmlns="http://www.w3.org/2000/svg" xmlns:xlink="http://www.w3.org/1999/xlink" xml:space="preserve" overflow="hidden"><g transform="translate(-2374 -1375)"><g><path d="M2383 1599.5C2383 1497.6 2465.6 1415 2567.5 1415 2669.4 1415 2752 1497.6 2752 1599.5 2752 1701.4 2669.4 1784 2567.5 1784 2465.6 1784 2383 1701.4 2383 1599.5Z" stroke="#CBC146" stroke-width="13.75" stroke-linecap="butt" stroke-linejoin="miter" stroke-miterlimit="8" stroke-opacity="1" fill="#FAEC80" fill-rule="evenodd" fill-opacity="1"/><path d="M2475 1571.5C2475 1562.39 2482.39 1555 2491.5 1555 2500.61 1555 2508 1562.39 2508 1571.5 2508 1580.61 2500.61 1588 2491.5 1588 2482.39 1588 2475 1580.61 2475 1571.5Z" stroke="#B88C08" stroke-width="10.3125" stroke-linecap="butt" stroke-linejoin="miter" stroke-miterlimit="8" stroke-opacity="1" fill="#B88C08" fill-rule="evenodd" fill-opacity="1"/><path d="M2635 1571.5C2635 1562.39 2642.39 1555 2651.5 1555 2660.61 1555 2668 1562.39 2668 1571.5 2668 1580.61 2660.61 1588 2651.5 1588 2642.39 1588 2635 1580.61 2635 1571.5Z" stroke="#B88C08" stroke-width="10.3125" stroke-linecap="butt" stroke-linejoin="miter" stroke-miterlimit="8" stroke-opacity="1" fill="#B88C08" fill-rule="evenodd" fill-opacity="1"/><path d="M2640 1621C2640 1632.32 2638.47 1641.5 2636.58 1641.5L2580.42 1641.5C2578.53 1641.5 2577 1650.68 2577 1662 2577 1650.68 2575.47 1641.5 2573.58 1641.5L2517.42 1641.5C2515.53 1641.5 2514 1632.32 2514 1621" stroke="#B88C08" stroke-width="13.75" stroke-linecap="butt" stroke-linejoin="miter" stroke-miterlimit="8" stroke-opacity="1" fill="none" fill-rule="evenodd"/><path d="M46.6424 0C72.4023-8.62396e-15 93.2849 30.3274 93.2849 67.7381" stroke="#825E23" stroke-width="13.75" stroke-linecap="butt" stroke-linejoin="miter" stroke-miterlimit="8" stroke-opacity="1" fill="none" fill-rule="evenodd" transform="matrix(-0.998809 0.0487934 0.0487934 0.998809 2647.33 1383.79)"/></g></g></svg>