<svg width="389" height="385" xmlns="http://www.w3.org/2000/svg" xmlns:xlink="http://www.w3.org/1999/xlink" xml:space="preserve" overflow="hidden"><g transform="translate(-3080 -1407)"><g><path d="M3090 1599.5C3090 1497.6 3172.6 1415 3274.5 1415 3376.4 1415 3459 1497.6 3459 1599.5 3459 1701.4 3376.4 1784 3274.5 1784 3172.6 1784 3090 1701.4 3090 1599.5Z" stroke="#EE7A72" stroke-width="13.75" stroke-linecap="butt" stroke-linejoin="miter" stroke-miterlimit="8" stroke-opacity="1" fill="#FDBCB4" fill-rule="evenodd" fill-opacity="1"/><path d="M3185 1567.5C3185 1558.39 3192.39 1551 3201.5 1551 3210.61 1551 3218 1558.39 3218 1567.5 3218 1576.61 3210.61 1584 3201.5 1584 3192.39 1584 3185 1576.61 3185 1567.5Z" stroke="#AF2728" stroke-width="10.3125" stroke-linecap="butt" stroke-linejoin="miter" stroke-miterlimit="8" stroke-opacity="1" fill="#C31415" fill-rule="evenodd" fill-opacity="1"/><path d="M3345 1567.5C3345 1558.39 3352.39 1551 3361.5 1551 3370.61 1551 3378 1558.39 3378 1567.5 3378 1576.61 3370.61 1584 3361.5 1584 3352.39 1584 3345 1576.61 3345 1567.5Z" stroke="#AF2728" stroke-width="10.3125" stroke-linecap="butt" stroke-linejoin="miter" stroke-miterlimit="8" stroke-opacity="1" fill="#C31415" fill-rule="evenodd" fill-opacity="1"/><path d="M3265 1632.5C3265 1607.92 3274.63 1588 3286.5 1588 3298.37 1588 3308 1607.92 3308 1632.5 3308 1657.08 3298.37 1677 3286.5 1677 3274.63 1677 3265 1657.08 3265 1632.5Z" stroke="#AF2728" stroke-width="10.3125" stroke-linecap="butt" stroke-linejoin="miter" stroke-miterlimit="8" stroke-opacity="1" fill="#FFFFFF" fill-rule="evenodd" fill-opacity="1"/><path d="M3306.7 1419.63 3294.52 1451.15 3288.63 1451.14 3281.57 1480.98 3275.17 1481.58 3258.71 1527.67 3259.19 1482.16 3266.55 1481.97 3267.28 1453.17 3276.69 1451.99 3277.36 1421.7Z" stroke="#EE7A6F" stroke-width="4.58333" stroke-linecap="butt" stroke-linejoin="miter" stroke-miterlimit="8" stroke-opacity="1" fill="#EE7A6F" fill-rule="evenodd" fill-opacity="1"/></g></g></svg>