<svg width="390" height="427" xmlns="http://www.w3.org/2000/svg" xmlns:xlink="http://www.w3.org/1999/xlink" xml:space="preserve" overflow="hidden"><g transform="translate(-3721 -1365)"><g><path d="M3731 1599.5C3731 1497.6 3813.6 1415 3915.5 1415 4017.4 1415 4100 1497.6 4100 1599.5 4100 1701.4 4017.4 1784 3915.5 1784 3813.6 1784 3731 1701.4 3731 1599.5Z" stroke="#ECBB22" stroke-width="13.75" stroke-linecap="butt" stroke-linejoin="miter" stroke-miterlimit="8" stroke-opacity="1" fill="#F9E512" fill-rule="evenodd" fill-opacity="1"/><path d="M28.6704 5.15906C52.3888-9.13499 79.5989 7.18839 89.4459 41.6183 89.6918 42.4783 89.9255 43.3455 90.1467 44.2195" stroke="#C98703" stroke-width="13.75" stroke-linecap="butt" stroke-linejoin="miter" stroke-miterlimit="8" stroke-opacity="1" fill="none" fill-rule="evenodd" transform="matrix(-1 0 0 1 4060 1529)"/><path d="M3809.94 1542.01C3832.98 1525.4 3860.85 1539.25 3872.21 1572.93 3872.49 1573.78 3872.77 1574.64 3873.03 1575.51" stroke="#C98703" stroke-width="13.75" stroke-linecap="butt" stroke-linejoin="miter" stroke-miterlimit="8" stroke-opacity="1" fill="none" fill-rule="evenodd"/><path d="M3886 1619.16C3886 1610.24 3893.24 1603 3902.16 1603L3944.84 1603C3953.76 1603 3961 1610.24 3961 1619.16L3961 1642.84C3961 1651.76 3953.76 1659 3944.84 1659L3902.16 1659C3893.24 1659 3886 1651.76 3886 1642.84Z" stroke="#C98703" stroke-width="13.75" stroke-linecap="butt" stroke-linejoin="miter" stroke-miterlimit="8" stroke-opacity="1" fill="#FFFFFF" fill-rule="evenodd" fill-opacity="1"/><path d="M3776 1444.1 3820.19 1422.51 3804.42 1395.59 3875.31 1395.59 3919.5 1374 3963.69 1395.59 4034.58 1395.59 4018.81 1422.51 4063 1444.1 3999.14 1456.08 3983.36 1483 3919.5 1471.02 3855.64 1483 3839.86 1456.08Z" stroke="#84A821" stroke-width="13.75" stroke-linecap="butt" stroke-linejoin="miter" stroke-miterlimit="8" stroke-opacity="1" fill="#BCEB48" fill-rule="evenodd" fill-opacity="1"/></g></g></svg>