<svg width="385" height="417" xmlns="http://www.w3.org/2000/svg" xmlns:xlink="http://www.w3.org/1999/xlink" xml:space="preserve" overflow="hidden"><g transform="translate(-2374 -1970)"><g><path d="M2383 2192.5C2383 2090.6 2465.6 2008 2567.5 2008 2669.4 2008 2752 2090.6 2752 2192.5 2752 2294.4 2669.4 2377 2567.5 2377 2465.6 2377 2383 2294.4 2383 2192.5Z" stroke="#88B226" stroke-width="13.75" stroke-linecap="butt" stroke-linejoin="miter" stroke-miterlimit="8" stroke-opacity="1" fill="#AFE124" fill-rule="evenodd" fill-opacity="1"/><path d="M2474 2152C2474 2143.16 2481.39 2136 2490.5 2136 2499.61 2136 2507 2143.16 2507 2152 2507 2160.84 2499.61 2168 2490.5 2168 2481.39 2168 2474 2160.84 2474 2152Z" stroke="#437C00" stroke-width="10.3125" stroke-linecap="butt" stroke-linejoin="miter" stroke-miterlimit="8" stroke-opacity="1" fill="#437C00" fill-rule="evenodd" fill-opacity="1"/><path d="M2634 2152C2634 2143.16 2641.39 2136 2650.5 2136 2659.61 2136 2667 2143.16 2667 2152 2667 2160.84 2659.61 2168 2650.5 2168 2641.39 2168 2634 2160.84 2634 2152Z" stroke="#437C00" stroke-width="10.3125" stroke-linecap="butt" stroke-linejoin="miter" stroke-miterlimit="8" stroke-opacity="1" fill="#437C00" fill-rule="evenodd" fill-opacity="1"/><path d="M0 0 48.2318 26.9597" stroke="#437C00" stroke-width="13.75" stroke-linecap="butt" stroke-linejoin="miter" stroke-miterlimit="8" stroke-opacity="1" fill="none" fill-rule="evenodd" transform="matrix(1 0 0 -1 2527 2225.96)"/><path d="M2616.07 2224.05 2568 2202" stroke="#437C00" stroke-width="13.75" stroke-linecap="butt" stroke-linejoin="miter" stroke-miterlimit="8" stroke-opacity="1" fill="none" fill-rule="evenodd"/><path d="M77.4809 0C120.272-1.07872e-14 154.962 37.9348 154.962 84.7298" stroke="#488101" stroke-width="27.5" stroke-linecap="butt" stroke-linejoin="miter" stroke-miterlimit="8" stroke-opacity="1" fill="none" fill-rule="evenodd" transform="matrix(-0.979372 -0.202067 -0.202067 0.979372 2820.3 2013.55)"/></g></g></svg>